<svg xmlns="http://www.w3.org/2000/svg" width="50" height="50" viewBox="0 0 50 50">
    <g id="Edit_Profile_Image" data-name="Edit Profile Image" transform="translate(0.442 0.469)">
        <g id="Change_Image_Background" data-name="Change Image Background" transform="translate(-0.442 -0.469)" fill="#f5f6f9" stroke="#fff" stroke-miterlimit="10" stroke-width="2">
            <circle cx="25" cy="25" r="25" stroke="none"/>
            <circle cx="25" cy="25" r="24" fill="none"/>
        </g>
        <path id="Camera_Icon" data-name="Camera Icon" d="M19.071,18H2.929A2.933,2.933,0,0,1,0,15.071V6.1A2.932,2.932,0,0,1,2.929,3.173h2.3a.535.535,0,0,0,.5-.351l.6-1.652A1.777,1.777,0,0,1,7.992,0h6.015a1.778,1.778,0,0,1,1.669,1.17l.6,1.652a.535.535,0,0,0,.5.35h2.3A2.932,2.932,0,0,1,22,6.1v8.97A2.933,2.933,0,0,1,19.071,18ZM2.929,4.417A1.686,1.686,0,0,0,1.245,6.1v8.97a1.686,1.686,0,0,0,1.684,1.684H19.071a1.686,1.686,0,0,0,1.684-1.684V6.1a1.686,1.686,0,0,0-1.684-1.684h-2.3a1.782,1.782,0,0,1-1.667-1.168l-.6-1.653a.531.531,0,0,0-.5-.35H7.992a.531.531,0,0,0-.5.349l-.6,1.653A1.782,1.782,0,0,1,5.225,4.417ZM11,14.762a4.256,4.256,0,1,1,4.255-4.255A4.26,4.26,0,0,1,11,14.762Zm0-7.268a3.011,3.011,0,1,0,3.01,3.012A3.014,3.014,0,0,0,11,7.494Z" transform="translate(14.558 16.531)" fill="#757575"/>
    </g>
</svg>
