<svg xmlns="http://www.w3.org/2000/svg" width="20" height="20" viewBox="0 0 20 20">
    <g id="Group_568" data-name="Group 568" transform="translate(-70 -260)">
        <circle id="Oval" cx="10" cy="10" r="10" transform="translate(70 260)" fill="#ffe6e6"/>
        <path id="Heart_Icon_2" data-name="Heart Icon 2" d="M7.345,4.307,4.121,7.944a.158.158,0,0,1-.241,0L.655,4.307A2.68,2.68,0,0,1,0,2.523,2.68,2.68,0,0,1,.655.738,2.11,2.11,0,0,1,2.237,0,2.11,2.11,0,0,1,3.82.738a.235.235,0,0,0,.361,0,2.065,2.065,0,0,1,3.165,0A2.678,2.678,0,0,1,8,2.523a2.679,2.679,0,0,1-.655,1.784" transform="translate(76 267)" fill="#ff4848"/>
    </g>
</svg>
