<svg xmlns="http://www.w3.org/2000/svg" width="14.018" height="14.018" viewBox="0 0 14.018 14.018">
    <path id="Icon_material-g-translate" data-name="Icon material-g-translate" d="M15.616,5.1H9.224L8.607,3H4.4A1.406,1.406,0,0,0,3,4.4v9.112a1.406,1.406,0,0,0,1.4,1.4H9.308l.7,2.1h5.607a1.406,1.406,0,0,0,1.4-1.4V6.5A1.406,1.406,0,0,0,15.616,5.1ZM6.624,11.824a2.867,2.867,0,1,1,0-5.733,2.768,2.768,0,0,1,1.92.75l.049.042-.862.827-.042-.035a1.522,1.522,0,0,0-1.065-.414,1.7,1.7,0,0,0,0,3.392A1.436,1.436,0,0,0,8.11,9.631H6.561V8.544H9.329l.007.049a2.2,2.2,0,0,1,.035.428,2.657,2.657,0,0,1-2.748,2.8Zm4.226-1.2a7,7,0,0,0,.834,1.192l-.378.371Zm.54-.533H10.7l-.217-.729h2.8a5.384,5.384,0,0,1-1.093,1.92,6.435,6.435,0,0,1-.792-1.192Zm4.927,5.523a.7.7,0,0,1-.7.7H10.71l1.4-1.4-.568-1.942.645-.645,1.878,1.885.512-.512-1.9-1.878a6.119,6.119,0,0,0,1.346-2.46h.89V8.635H12.364V7.906h-.729v.729H10.261L9.434,5.8h6.182a.7.7,0,0,1,.7.7Z" transform="translate(-3 -3)"/>
</svg>
