<svg xmlns="http://www.w3.org/2000/svg" width="24" height="25" viewBox="0 0 24 25">
    <path id="Log_out" data-name="Log out" d="M9.5,25H2a1.992,1.992,0,0,1-2-1.979V1.98A1.992,1.992,0,0,1,2,0H9.5a5.728,5.728,0,0,1,5.75,5.693V6.931a.75.75,0,0,1-1.5,0V5.693A4.235,4.235,0,0,0,9.5,1.484H2a.505.505,0,0,0-.5.5V23.021a.5.5,0,0,0,.5.495H9.5a4.234,4.234,0,0,0,4.25-4.208V18.07a.75.75,0,0,1,1.5,0v1.237A5.728,5.728,0,0,1,9.5,25Zm9.274-7.346a.748.748,0,0,1-.529-.218.734.734,0,0,1,0-1.05l3.175-3.145H8.25a.742.742,0,1,1,0-1.484h13.2L18.271,8.612a.742.742,0,0,1,0-1.051.76.76,0,0,1,1.061,0l4.441,4.4a.681.681,0,0,1,.137.206A.707.707,0,0,1,24,12.5a.722.722,0,0,1-.284.568L19.3,17.436A.748.748,0,0,1,18.775,17.654Z" fill="#d6a779"/>
</svg>
