<svg xmlns="http://www.w3.org/2000/svg" width="24" height="24" viewBox="0 0 24 24">
    <path id="User_Icon_Copy" data-name="User Icon Copy" d="M20.959,24H3.041A3.069,3.069,0,0,1,.629,22.85a2.766,2.766,0,0,1-.545-2.426A11.93,11.93,0,0,1,3.2,14.931a12.317,12.317,0,0,1,5.419-3.165A6.291,6.291,0,0,1,5.507,6.35,6.43,6.43,0,0,1,12,0a6.429,6.429,0,0,1,6.492,6.35,6.289,6.289,0,0,1-3.106,5.416A12.319,12.319,0,0,1,20.8,14.931a11.925,11.925,0,0,1,3.112,5.494,2.766,2.766,0,0,1-.545,2.426A3.067,3.067,0,0,1,20.959,24ZM12,12.7a10.778,10.778,0,0,0-10.533,8.06,1.393,1.393,0,0,0,.283,1.233,1.663,1.663,0,0,0,1.29.617H20.959a1.667,1.667,0,0,0,1.291-.617,1.4,1.4,0,0,0,.283-1.233A10.779,10.779,0,0,0,12,12.7Zm0-11.3A5.018,5.018,0,0,0,6.934,6.35a5.068,5.068,0,0,0,10.133,0A5.017,5.017,0,0,0,12,1.394Z" fill="#d6a779"/>
</svg>
